<?xml version="1.0" encoding="UTF-8" standalone="no"?>
<!-- Created with Inkscape (http://www.inkscape.org/) -->

<svg
   xmlns:dc="http://purl.org/dc/elements/1.1/"
   xmlns:cc="http://creativecommons.org/ns#"
   xmlns:rdf="http://www.w3.org/1999/02/22-rdf-syntax-ns#"
   xmlns:svg="http://www.w3.org/2000/svg"
   xmlns="http://www.w3.org/2000/svg"
   xmlns:sodipodi="http://sodipodi.sourceforge.net/DTD/sodipodi-0.dtd"
   xmlns:inkscape="http://www.inkscape.org/namespaces/inkscape"
   width="56.549961mm"
   height="54.720322mm"
   viewBox="0 0 56.549961 54.720322"
   version="1.1"
   id="svg8"
   inkscape:version="0.92.4 (5da689c313, 2019-01-14)"
   sodipodi:docname="logo.svg">
  <defs
     id="defs2" />
  <sodipodi:namedview
     id="base"
     pagecolor="#ffffff"
     bordercolor="#666666"
     borderopacity="1.0"
     inkscape:pageopacity="0.0"
     inkscape:pageshadow="2"
     inkscape:zoom="3.959798"
     inkscape:cx="127.6284"
     inkscape:cy="104.79017"
     inkscape:document-units="mm"
     inkscape:current-layer="layer1"
     showgrid="false"
     inkscape:window-width="1920"
     inkscape:window-height="986"
     inkscape:window-x="-11"
     inkscape:window-y="-11"
     inkscape:window-maximized="1" />
  <metadata
     id="metadata5">
    <rdf:RDF>
      <cc:Work
         rdf:about="">
        <dc:format>image/svg+xml</dc:format>
        <dc:type
           rdf:resource="http://purl.org/dc/dcmitype/StillImage" />
        <dc:title></dc:title>
      </cc:Work>
    </rdf:RDF>
  </metadata>
  <g
     inkscape:label="Layer 1"
     inkscape:groupmode="layer"
     id="layer1"
     transform="translate(-31.132983,-45.495765)">
    <g
       aria-label="AT"
       transform="scale(0.26458333)"
       style="font-style:normal;font-variant:normal;font-weight:normal;font-stretch:normal;font-size:40px;line-height:1.25;font-family:serif;-inkscape-font-specification:serif;letter-spacing:0px;word-spacing:0px;fill:#000000;fill-opacity:1;stroke:none"
       id="flowRoot3713">
      <path
         d="m 204.01172,259.42125 h -49.21875 l -8.625,20.0625 q -3.1875,7.40625 -3.1875,11.0625 0,2.90625 2.71875,5.15625 2.8125,2.15625 12,2.8125 v 3.46875 H 117.66797 V 298.515 q 7.96875,-1.40625 10.3125,-3.65625 4.78125,-4.5 10.59375,-18.28125 l 44.71875,-104.625 h 3.28125 l 44.25,105.75 q 5.34375,12.75 9.65625,16.59375 4.40625,3.75 12.1875,4.21875 v 3.46875 H 202.51172 V 298.515 q 7.59375,-0.375 10.21875,-2.53125 2.71875,-2.15625 2.71875,-5.25 0,-4.125 -3.75,-13.03125 z m -2.625,-6.9375 -21.5625,-51.375 -22.125,51.375 z"
         style="font-size:192px"
         id="path3721"
         inkscape:connector-curvature="0" />
      <path
         d="m 329.99386,251.64446 1.40625,29.8125 h -3.5625 c -0.6875,-5.25 -1.625,-9 -2.8125,-11.25 -1.9375,-3.625 -4.53125,-6.28125 -7.78125,-7.96875 -3.1875,-1.75 -7.40625,-2.625 -12.65625,-2.625 h -17.90625 v 97.125 c 0,7.8125 0.84375,12.6875 2.53125,14.625 2.375,2.625 6.03125,3.9375 10.96875,3.9375 h 4.40625 v 3.46875 h -53.90625 v -3.46875 h 4.5 c 5.375,0 9.1875,-1.625 11.4375,-4.875 1.375,-2 2.0625,-6.5625 2.0625,-13.6875 v -97.125 h -118.1384 c 4.25001,-0.19196 3.35773,-7.93565 3.35773,-7.93565 16.79667,0.29937 141.35171,-0.0331 176.09317,-0.0331 z"
         style="font-size:192px"
         id="path3723"
         inkscape:connector-curvature="0"
         sodipodi:nodetypes="cccccscscsccccscsccsc" />
    </g>
  </g>
</svg>
